<?xml version="1.0" standalone="no"?><!DOCTYPE svg PUBLIC "-//W3C//DTD SVG 1.1//EN" "http://www.w3.org/Graphics/SVG/1.1/DTD/svg11.dtd"><svg t="1751116546527" class="icon" viewBox="0 0 1024 1024" version="1.1" xmlns="http://www.w3.org/2000/svg" p-id="3260" xmlns:xlink="http://www.w3.org/1999/xlink" width="200" height="200"><path d="M886.64601 746.6c-16.5 16.5-49.4 41.2-107 41.2H425.54601c107-102.9 197.6-189.4 205.8-197.6 8.2-8.2 28.8-28.8 49.4-45.3 41.2-37 74.1-41.2 102.9-41.2 41.2 0 74.1 16.5 102.9 41.2 57.7 53.5 57.7 148.2 0.1 201.7m70-267.5C915.44601 433.8 853.74601 405 787.84601 405c-57.6 0-107 20.6-152.3 53.5-16.5 16.5-41.2 32.9-61.7 57.6-16.5 16.5-370.5 362.3-370.5 362.3 20.6 4.1 45.3 4.1 65.9 4.1h448.7c32.9 0 57.6 0 82.3-4.1 53.5-4.1 107-24.7 152.3-65.9 94.6-90.6 94.6-242.9 4.1-333.4z" fill="#00A3FF" p-id="3261"></path><path d="M380.34601 454.4c-45.3-33-90.6-49.4-144.1-49.4-65.9 0-127.6 28.8-168.8 74.1-90.6 94.7-90.6 242.9 4.1 337.6 41.2 37 82.3 57.6 131.7 61.7l94.7-90.6h-53.5c-53.5-4.1-86.4-20.6-107-41.2-57.6-57.6-57.6-148.2-4.1-205.8 28.8-28.8 61.7-41.2 102.9-41.2 24.7 0 61.7 4.1 98.8 41.2 16.5 16.5 61.7 49.4 78.2 65.9h4.1L479.04601 545v-4.1c-28.7-28.9-74-65.9-98.7-86.5" fill="#00C8DC" p-id="3262"></path><path d="M812.54601 351.5c-45.3-123.5-164.7-210-300.5-210-160.5 0-288.2 119.4-312.9 267.6 12.3 0 24.7-4.1 41.2-4.1 16.5 0 37 4.1 53.5 4.1 20.6-102.9 111.1-177 218.2-177 90.6 0 168.8 53.5 205.8 131.7 0 0 4.1 4.1 4.1 0 28.9-4.1 61.8-12.3 90.6-12.3 0 4.1 0 4.1 0 0" fill="#006EFF" p-id="3263"></path></svg>